<?xml version="1.0" standalone="no"?>
<!DOCTYPE svg PUBLIC "-//W3C//DTD SVG 20010904//EN"
 "http://www.w3.org/TR/2001/REC-SVG-20010904/DTD/svg10.dtd">
<svg version="1.0" xmlns="http://www.w3.org/2000/svg"
 width="300.000000pt" height="300.000000pt" viewBox="0 0 300.000000 300.000000"
 preserveAspectRatio="xMidYMid meet">
<metadata>
Created by potrace 1.10, written by Peter Selinger 2001-2011
</metadata>
<g transform="translate(0.000000,300.000000) scale(0.100000,-0.100000)"
fill="#000000" stroke="none">
<path d="M1987 2163 c-8 -10 -17 -31 -19 -47 -6 -54 -24 -54 -185 0 l-148 49
-145 0 c-125 0 -154 -3 -211 -23 -86 -30 -147 -69 -191 -123 -75 -92 -99 -172
-94 -309 2 -85 7 -104 39 -174 21 -43 37 -80 37 -82 0 -2 -9 -4 -19 -4 -10 0
-29 -11 -42 -24 -23 -24 -23 -26 -24 -276 0 -232 1 -253 18 -271 17 -18 21
-19 40 -6 13 9 24 30 28 52 8 47 34 68 73 61 15 -3 73 -30 127 -60 152 -84
181 -91 344 -91 116 1 152 4 210 23 84 27 168 82 212 140 99 131 98 383 -2
532 -19 29 -35 55 -35 59 0 3 13 18 29 33 l28 27 1 246 c1 231 0 247 -19 266
-23 23 -32 24 -52 2z m37 -265 c-3 -280 0 -267 -70 -253 -51 9 -121 86 -205
226 -41 68 -99 149 -129 181 -52 54 -59 58 -101 58 -79 0 -112 -46 -89 -129
16 -61 89 -126 211 -191 280 -148 381 -248 426 -423 11 -44 14 -84 10 -138
-19 -246 -172 -361 -482 -362 -122 0 -185 19 -330 101 -77 44 -110 57 -141 57
-60 0 -84 -25 -84 -87 0 -37 -4 -48 -16 -48 -14 0 -15 12 -8 98 5 53 7 149 5
212 -2 63 -4 135 -5 160 -1 45 -1 45 34 48 47 4 116 -40 171 -110 23 -29 78
-107 121 -173 115 -172 179 -235 243 -235 79 0 102 80 52 176 -25 48 -112 119
-202 165 -194 100 -318 205 -369 312 -77 164 -43 379 78 485 86 75 188 106
351 106 117 1 123 0 260 -47 201 -69 245 -65 245 19 0 30 4 44 13 44 11 0 13
-48 11 -252z m-441 144 c32 -30 107 -136 107 -151 0 -5 4 -11 8 -13 12 -5 62
-95 56 -101 -12 -11 -170 82 -225 133 -47 43 -61 63 -66 93 -12 77 56 100 120
39z m-195 -823 c148 -82 212 -139 233 -207 26 -88 -39 -112 -115 -41 -37 33
-196 256 -196 274 0 11 24 3 78 -26z"/>
<path d="M805 1799 c-22 -12 -96 -51 -165 -89 -69 -37 -170 -91 -225 -120 -55
-29 -131 -70 -168 -92 -38 -21 -70 -38 -72 -38 -16 0 -127 -75 -136 -91 -17
-32 8 -58 127 -133 60 -37 136 -84 169 -105 246 -155 355 -221 388 -237 37
-18 38 -18 59 3 17 17 23 42 32 118 l10 97 -39 35 c-22 20 -96 70 -165 112
-69 42 -125 83 -125 90 0 7 52 40 115 74 191 101 244 133 262 158 12 16 20 52
24 112 6 76 5 90 -11 107 -22 25 -30 24 -80 -1z m65 -21 c0 -6 -5 -51 -11 -98
l-11 -86 -224 -120 c-123 -65 -224 -122 -224 -125 0 -4 7 -10 16 -13 8 -3 96
-56 195 -117 155 -96 180 -115 175 -133 -2 -12 -8 -56 -11 -99 -4 -43 -11 -77
-15 -75 -18 7 -700 434 -700 438 0 3 156 90 348 193 191 103 370 200 397 216
58 33 65 35 65 19z"/>
<path d="M2394 1725 c-14 -21 -39 -118 -73 -285 -5 -25 -21 -92 -34 -150 -21
-86 -44 -193 -72 -324 -2 -10 7 -29 22 -43 l25 -26 24 25 c19 19 32 57 60 178
19 85 57 251 85 369 27 118 49 222 49 231 0 21 -31 50 -53 50 -9 0 -24 -11
-33 -25z m52 -27 c-3 -13 -42 -185 -87 -383 -95 -424 -85 -385 -104 -385 -11
0 -15 6 -11 18 3 9 42 177 86 372 44 195 82 365 85 378 3 12 13 22 21 22 12 0
15 -6 10 -22z"/>
<path d="M2510 1498 c-18 -19 -21 -31 -16 -67 7 -54 17 -65 100 -116 36 -22
66 -45 66 -51 0 -7 -32 -31 -71 -54 -79 -47 -103 -84 -93 -142 7 -35 30 -68
47 -68 15 0 258 164 281 189 14 16 19 35 18 74 -2 47 -6 55 -40 87 -53 48
-237 170 -256 170 -8 0 -25 -10 -36 -22z m298 -237 l-3 -45 -120 -83 c-169
-118 -155 -113 -155 -54 l0 49 101 63 c55 34 102 66 104 70 3 4 -41 36 -98 71
l-102 65 -3 51 -3 51 141 -97 141 -97 -3 -44z"/>
<path d="M1019 559 c-16 -9 -21 -89 -6 -89 5 0 7 18 5 40 -3 38 -2 40 24 40
15 0 30 -5 33 -10 10 -16 -5 -50 -22 -50 -19 0 -11 -25 8 -25 8 -1 24 -6 36
-13 50 -28 103 -1 103 53 0 18 -6 36 -12 38 -7 3 4 6 26 6 l39 1 -6 -35 c-3
-19 -1 -37 4 -40 13 -8 11 -25 -2 -25 -6 0 -13 9 -16 20 -3 11 -10 20 -15 20
-5 0 -7 -9 -3 -19 4 -14 0 -21 -12 -24 -10 -2 28 -4 85 -3 78 1 105 4 112 16
8 12 11 12 27 -2 27 -25 291 -25 309 0 25 32 10 102 -21 102 -11 0 -10 -5 5
-20 11 -11 20 -27 20 -36 0 -54 -62 -76 -80 -28 -14 35 -13 41 11 65 l20 20
-48 -3 c-44 -3 -48 -5 -51 -30 -4 -34 -22 -37 -22 -5 0 34 -15 43 -60 39 -40
-4 -40 -5 -20 -19 43 -30 6 -114 -37 -87 -25 16 -29 75 -7 91 21 15 5 17 -161
14 -55 -1 -111 -1 -124 -1 -23 0 -24 -1 -7 -13 21 -16 24 -60 6 -82 -17 -21
-47 -19 -60 4 -15 29 -12 49 10 71 26 26 25 31 -2 21 -13 -4 -35 -5 -49 -1
-15 4 -33 4 -40 -1z m320 -26 c0 -11 -3 -13 -6 -5 -2 6 -9 12 -15 12 -7 0 -9
-17 -6 -45 5 -38 3 -45 -12 -45 -15 0 -17 7 -14 48 2 26 1 41 -2 34 -6 -13
-24 -7 -24 9 0 5 18 9 40 9 32 0 40 -4 39 -17z m81 8 c0 -6 -4 -13 -10 -16 -5
-3 -10 -1 -10 4 0 6 -4 11 -10 11 -18 0 -11 -30 8 -30 16 -1 16 -1 -1 -14 -10
-8 -15 -20 -11 -30 4 -11 1 -16 -13 -16 -15 0 -18 8 -18 50 0 50 0 50 33 50
17 0 32 -4 32 -9z m132 -25 c-6 -50 0 -62 21 -42 16 16 17 16 17 -3 0 -17 -6
-21 -32 -21 -33 0 -33 0 -33 50 0 38 4 50 15 50 12 0 15 -8 12 -34z m83 -16
c0 -38 -3 -50 -15 -50 -11 0 -15 12 -15 50 0 38 4 50 15 50 11 0 15 -12 15
-50z"/>
<path d="M1114 515 c-7 -26 11 -59 27 -49 5 3 9 21 9 40 0 41 -26 48 -36 9z"/>
<path d="M1457 534 c-10 -10 -9 -62 1 -68 16 -10 33 12 30 39 -3 28 -18 42
-31 29z"/>
<path d="M1675 520 c-3 -10 -1 -29 6 -41 11 -22 12 -22 26 -4 7 11 11 26 8 33
-3 8 -5 18 -5 23 0 17 -29 9 -35 -11z"/>
</g>
</svg>
